PathFileType	3	(X/Y/Z)	C:\Users\koon_\Desktop\
DataRate	CameraRate	NumFrames	NumMarkers	Units	OrigDataRate	OrigDataStartFrame	OrigNumFrames
100.0	100.0	11	27	mm	100.0	2317	3706	
Frame#	Time	GM:LFHD			GM:RFHD			GM:LBHD			GM:RBHD			GM:C7			GM:T10			GM:CLAV			GM:STRN			GM:RBAK			GM:LSHO			GM:LUPA			GM:LELB			GM:LFRA			GM:LWRA			GM:LWRB			GM:LFIN			GM:RSHO			GM:RUPA			GM:RELB			GM:RFRA			GM:RWRA			GM:RWRB			GM:RFIN			GM:LASI			GM:RASI			GM:LPSI			GM:RPSI			
		X1	Y1	Z1	X2	Y2	Z2	X3	Y3	Z3	X4	Y4	Z4	X5	Y5	Z5	X6	Y6	Z6	X7	Y7	Z7	X8	Y8	Z8	X9	Y9	Z9	X10	Y10	Z10	X11	Y11	Z11	X12	Y12	Z12	X13	Y13	Z13	X14	Y14	Z14	X15	Y15	Z15	X16	Y16	Z16	X17	Y17	Z17	X18	Y18	Z18	X19	Y19	Z19	X20	Y20	Z20	X21	Y21	Z21	X22	Y22	Z22	X23	Y23	Z23	X24	Y24	Z24	X25	Y25	Z25	X26	Y26	Z26	X27	Y27	Z27	
2317	23.16	77.920204	1606.2733	-68.012344	-75.855972	1597.344	-69.575104	80.519913	1590.5697	-200.39268	-83.045715	1583.663	-184.70526	4.7682533	1419.8416	-242.11288	8.0541353	1222.0078	-282.10657	13.628048	1360.4041	-85.117271	15.088617	1215.6063	-33.477543	-84.665405	1307.1447	-287.32822	182.44807	1395.7854	-168.97688	244.03133	1285.3616	-169.31946	257.1275	1080.9526	-226.36333	231.60396	960.8316	-142.38954	232.45502	890.94305	-120.31349	254.61987	867.98932	-178.27835	255.53003	802.91113	-109.60043	-177.17691	1393.3846	-150.4037	-232.51735	1157.5389	-152.2608	-256.47662	1076.5178	-202.6955	-238.38904	1018.4345	-131.36339	-232.33609	887.67181	-104.93104	-250.60168	867.33984	-160.87186	-258.17209	804.87842	-97.394958	147.12227	899.37823	-67.934708	-144.29643	907.41846	-67.549606	71.176376	954.27667	-277.17322	-66.744949	946.20044	-278.82678
2318	23.17	77.619583	1606.2678	-67.949135	-76.275421	1597.3031	-69.514473	80.204941	1590.5499	-200.31026	-82.966957	1583.6899	-184.7195	4.3716154	1419.8864	-242.0432	7.8134165	1222.0753	-282.04474	13.48781	1360.3448	-85.057053	15.084849	1215.5031	-33.510498	-85.140327	1307.2405	-287.0795	182.14247	1395.9491	-169.24515	243.99922	1285.7076	-169.58302	257.55072	1081.1724	-225.94508	232.21562	961.00464	-141.95917	232.96069	891.12939	-119.86498	255.03209	868.26715	-177.90645	255.71001	802.8338	-109.3056	-177.35728	1393.1858	-149.87025	-232.43008	1157.2939	-151.78932	-256.79965	1076.41	-202.38879	-238.40251	1018.2401	-131.16328	-232.29028	887.44757	-105.03082	-250.67207	867.18469	-160.88589	-258.35251	804.80011	-97.552231	147.2063	899.36798	-67.932594	-144.23418	907.39081	-67.531364	71.226974	954.28448	-277.19955	-66.719681	946.18469	-278.82144
2319	23.18	77.359848	1606.2938	-67.865013	-76.577507	1597.2457	-69.43811	79.931046	1590.5583	-200.23082	-83.26989	1583.6318	-184.57794	3.8958797	1419.892	-241.86696	7.4914231	1222.1543	-282.10416	13.402988	1360.2594	-84.957451	15.013365	1215.384	-33.52523	-85.591736	1307.337	-286.83774	181.99953	1396.2432	-169.67291	244.02803	1286.0756	-169.83105	258.10452	1081.3525	-225.36182	233.14146	961.39099	-141.36426	233.47215	891.36865	-119.32291	255.74515	868.57806	-177.33585	256.0177	802.85791	-108.87446	-177.60684	1392.9274	-149.22177	-232.42049	1157.0345	-151.37689	-256.68304	1076.2357	-202.06642	-238.51556	1018.0344	-130.87828	-232.29459	887.20215	-105.13686	-250.66563	866.91565	-161.04955	-258.49533	804.61627	-97.709381	147.17747	899.37585	-68.010834	-144.16212	907.40137	-67.446411	71.218987	954.28137	-277.17691	-66.683556	946.14954	-278.797
2320	23.19	77.079865	1606.3229	-67.770493	-76.883751	1597.2513	-69.304192	79.602081	1590.5271	-200.12108	-83.628761	1583.5674	-184.4314	3.4852877	1419.9158	-241.78067	7.1632519	1222.2042	-282.09778	13.180575	1360.1508	-84.835785	14.973207	1215.2096	-33.529278	-86.064903	1307.4501	-286.58749	181.55455	1396.2238	-169.75784	244.00757	1286.3494	-169.87706	258.64307	1081.5468	-224.77307	233.49272	961.62988	-140.8224	233.88985	891.58942	-118.76183	256.27237	868.75073	-176.6519	256.32278	802.88757	-108.33145	-177.88719	1392.651	-148.62946	-232.61353	1156.6487	-151.08646	-256.85553	1075.972	-201.7162	-238.57172	1017.6223	-130.74841	-232.14256	886.81567	-105.17337	-250.52855	866.53259	-161.10109	-258.54974	804.34204	-97.887657	147.26106	899.45197	-68.005844	-144.07617	907.36041	-67.353027	71.256378	954.25153	-277.20343	-66.687386	946.12427	-278.72998
2321	23.2	76.79229	1606.3408	-67.681152	-77.205956	1597.1887	-69.204117	79.221336	1590.4958	-200.02054	-83.910049	1583.463	-184.26535	3.0288932	1419.9381	-241.64447	6.8708744	1222.2463	-282.02713	13.090744	1360.0873	-84.825211	14.964617	1215.1079	-33.473698	-86.492653	1307.5055	-286.42261	181.43471	1396.5491	-170.06299	244.03558	1286.6146	-169.81203	259.24316	1081.7532	-224.04477	233.79761	961.89404	-140.25592	234.20668	891.84235	-118.1078	257.14697	868.97577	-175.83685	256.68521	803.00421	-107.62764	-178.19983	1392.3726	-148.18422	-232.782	1156.3282	-150.84833	-256.99542	1075.5996	-201.39792	-238.50734	1017.1629	-130.64771	-232.0015	886.36279	-105.22064	-250.31427	866.14655	-161.11508	-258.53949	804.03632	-98.089409	147.36221	899.4411	-68.111092	-144.05359	907.30627	-67.289703	71.280983	954.25574	-277.22974	-66.69751	946.07001	-278.70877
2322	23.21	76.49765	1606.3479	-67.555183	-77.405037	1597.2075	-68.934113	78.856178	1590.4708	-199.92358	-84.281357	1583.4084	-184.07259	2.6148145	1419.9528	-241.52063	6.5733466	1222.2955	-282.01865	12.937341	1360.0027	-84.721352	14.937388	1214.9701	-33.479916	-86.928719	1307.5161	-286.2457	181.16887	1396.6965	-170.17015	243.96523	1286.8619	-169.57088	259.8031	1082.0424	-223.36443	233.93755	962.06128	-139.66626	234.52667	892.07166	-117.56396	258.06509	869.27258	-174.9046	257.06699	803.19409	-106.9917	-178.46645	1392.025	-147.75067	-233.00671	1156.0239	-150.73128	-257.00134	1075.2816	-201.21124	-238.54417	1016.764	-130.45964	-231.74812	885.87927	-105.24705	-250.08354	865.75421	-161.13896	-258.49326	803.71185	-98.301422	147.52692	899.46484	-68.110008	-143.97569	907.29156	-67.254753	71.2257	954.1947	-277.24445	-66.73365	946.00562	-278.71667
2323	23.22	76.177666	1606.3364	-67.433083	-77.688545	1597.1755	-68.710526	78.458672	1590.4351	-199.82655	-84.669823	1583.3677	-183.86964	2.2139869	1419.9191	-241.35388	6.3309813	1222.353	-282.06802	12.730389	1359.9207	-84.662437	14.945883	1214.9498	-33.47747	-87.341766	1307.4976	-286.03641	180.86459	1396.8878	-170.21152	243.79283	1287.1617	-169.14044	260.37735	1082.351	-222.72459	234.12463	962.35468	-139.17525	234.76122	892.2926	-116.9233	259.28659	869.74426	-173.92586	257.49005	803.44977	-106.37069	-178.76808	1391.6561	-147.39024	-233.09799	1155.7196	-150.58287	-257.44113	1074.9708	-201.11005	-237.83821	1016.1835	-130.77853	-231.48335	885.50073	-105.28426	-249.81204	865.34454	-161.18491	-258.33148	803.36151	-98.529518	147.59395	899.47437	-68.283905	-143.90785	907.26996	-67.142288	71.143974	954.19104	-277.32404	-66.757217	945.94849	-278.69574
2324	23.23	75.889793	1606.3391	-67.337448	-77.846451	1597.1367	-68.395805	78.058685	1590.4036	-199.66983	-85.383316	1583.234	-183.51627	1.8399146	1419.9447	-241.2249	6.1327286	1222.3934	-282.00729	12.504809	1359.8462	-84.569244	14.938389	1214.8597	-33.483303	-87.672363	1307.4363	-285.86746	180.52724	1397.089	-170.10271	243.58711	1287.4984	-168.61183	260.91476	1082.7172	-221.95006	234.31372	962.64215	-138.68312	234.93391	892.58099	-116.28659	259.85303	870.00647	-173.11206	257.85818	803.77948	-105.67902	-179.07018	1391.3998	-147.07785	-233.1723	1155.4207	-150.47803	-257.36356	1074.6368	-200.93456	-238.04562	1016.0949	-130.35973	-231.30704	885.07831	-105.43485	-249.46902	865.01221	-161.28317	-258.14951	802.95538	-98.658928	147.69495	899.46289	-68.390709	-143.82559	907.22797	-67.051025	71.103188	954.13818	-277.39105	-66.828506	945.8985	-278.66635
2325	23.24	75.546257	1606.2954	-67.183998	-78.227509	1597.0681	-68.028618	77.616516	1590.4106	-199.53513	-85.888596	1583.2119	-183.24567	1.4614862	1419.9193	-241.09613	5.9458966	1222.4904	-282.01453	12.297928	1359.7899	-84.470901	14.951283	1214.7813	-33.472778	-87.956352	1307.3575	-285.79935	180.15814	1397.4042	-169.96452	243.31511	1287.8096	-168.1076	261.42624	1083.0706	-221.12781	234.42378	962.92218	-138.10754	235.09305	892.94537	-115.73528	260.56216	870.35663	-172.42418	258.11713	804.11279	-104.90414	-179.40103	1391.1217	-146.90053	-233.18323	1155.1288	-150.33624	-257.28165	1074.3403	-200.94528	-237.93579	1015.6778	-130.32756	-231.04636	884.78693	-105.40835	-249.05682	864.65247	-161.35558	-257.86539	802.61023	-98.810562	147.83789	899.52155	-68.472458	-143.74823	907.18408	-66.962059	71.007614	954.09973	-277.53003	-66.910187	945.86676	-278.66443
2326	23.25	75.174362	1606.2738	-67.0989	-78.58271	1596.9701	-67.672997	77.103897	1590.434	-199.3829	-86.350563	1583.2051	-182.92844	1.1137991	1419.9607	-240.93756	5.8384738	1222.5115	-282.00833	12.039806	1359.7388	-84.416199	14.908175	1214.7146	-33.459572	-88.157402	1307.2233	-285.72595	179.8288	1397.7141	-169.755	243.00299	1288.1953	-167.46031	261.96039	1083.4866	-220.33327	234.47084	963.24323	-137.54173	235.20863	893.28625	-115.16354	261.13446	870.79779	-171.71346	258.41183	804.50165	-104.16522	-179.67842	1390.7969	-146.78201	-233.20363	1154.7467	-150.37668	-257.07681	1073.9771	-200.92645	-237.69035	1015.3976	-130.27556	-230.84862	884.44843	-105.44698	-248.27013	864.52008	-161.68916	-257.55688	802.28351	-98.837875	147.93672	899.52832	-68.663055	-143.65903	907.14484	-66.852966	70.898796	954.0498	-277.60223	-66.941574	945.81177	-278.65277
2327	23.26	74.849831	1606.2512	-66.928169	-79.108994	1596.8491	-67.496384	76.565102	1590.4764	-199.20285	-86.55101	1583.2515	-182.64159	0.79264605	1419.9994	-240.82158	5.7269258	1222.5586	-282.005	11.715084	1359.6461	-84.30117	14.920204	1214.6917	-33.459824	-88.302124	1307.1016	-285.65274	179.54356	1398.0713	-169.38989	242.72113	1288.609	-166.85158	262.34818	1083.9082	-219.63805	234.38341	963.28058	-136.99237	235.40916	893.78619	-114.58256	261.87561	871.4043	-171.01202	258.67441	804.91656	-103.52315	-179.97725	1390.4739	-146.75221	-233.16235	1154.3707	-150.37265	-256.98438	1073.6145	-201.04828	-237.53996	1015.0155	-130.31212	-230.55034	884.10742	-105.37868	-248.05089	864.03009	-161.57292	-257.19748	801.92224	-98.898094	148.07281	899.56158	-68.839767	-143.52127	907.12909	-66.746834	70.814865	954.02826	-277.74203	-67.031204	945.77032	-278.60587
